<svg id="Calque_1" data-name="Calque 1" xmlns="http://www.w3.org/2000/svg" viewBox="0 0 2768 1044"><defs><style>.cls-1{fill:#d9e5e1;}.cls-2{fill:#fff;}</style></defs><title>background-light</title><path class="cls-1" d="M103.68-12.25v-478.5h2768v1044l-275.36-37.43c-36.94-6.42-77.12-14.65-119.66-25.29-44.82-11.21-85.24-23.34-121.1-35.41-36-12.24-74.8-26.91-115.33-44.51C2197.32,392,2159.4,373.06,2126.34,355c-28.07-14.89-60.23-30.38-96.59-45.52a1263.14,1263.14,0,0,0-125.43-44.51c-57.8-15-123.85-29.55-197.51-41.48-53.71-8.7-104.43-14.87-151.37-19.22a2733.65,2733.65,0,0,0-288.34-9.11c-32,.7-86.79,2-158.58,8.1-62.39,5.32-63.12,7.94-177.32,20.23-100,10.76-142.35,13.15-190.3,13.15,0,0-42.73-.19-80.74-3-201.24-15.06-380-125.71-436.82-160.85A1145.45,1145.45,0,0,1,103.68-12.25Z" transform="translate(-103.68 490.75)"/><path class="cls-2" d="M-219,446" transform="translate(-103.68 490.75)"/></svg>