<svg id="Calque_1" data-name="Calque 1" xmlns="http://www.w3.org/2000/svg" viewBox="0 0 2768 1044"><defs><style>.cls-1{fill:#4d7368;}.cls-2{fill:#fff;}</style></defs><title>background</title><path class="cls-1" d="M0,478.5V0H2768V1044l-275.36-37.43c-36.94-6.42-77.12-14.65-119.66-25.29-44.82-11.21-85.24-23.34-121.1-35.41-36-12.24-74.8-26.91-115.33-44.51-42.91-18.61-80.83-37.55-113.89-55.61-28.07-14.89-60.23-30.38-96.59-45.52a1263.14,1263.14,0,0,0-125.43-44.51c-57.8-15-123.85-29.55-197.51-41.48-53.71-8.7-104.43-14.87-151.37-19.22a2733.65,2733.65,0,0,0-288.34-9.11c-32,.7-86.79,2-158.58,8.1-62.39,5.32-63.12,7.94-177.32,20.23-100,10.76-142.35,13.15-190.3,13.15,0,0-42.73-.19-80.74-3-201.24-15.06-380-125.71-436.82-160.85A1145.72,1145.72,0,0,1,0,478.5Z"/><path class="cls-2" d="M-322.68,936.75"/></svg>