<svg id="Calque_1" data-name="Calque 1" xmlns="http://www.w3.org/2000/svg" viewBox="0 0 272.87 717.18"><defs><style>.cls-1{fill:#bbe3f1;opacity:0.24;}.cls-1,.cls-6,.cls-8{isolation:isolate;}.cls-2{fill:#f78c68;}.cls-3{fill:#d17645;}.cls-4,.cls-6{fill:#4d7368;}.cls-18,.cls-5{fill:none;stroke:#fbfaf4;}.cls-17,.cls-18,.cls-19,.cls-5{stroke-miterlimit:10;}.cls-5{stroke-width:0.69px;}.cls-6{opacity:0.82;}.cls-7,.cls-8{fill:#000038;}.cls-8{opacity:0.43;}.cls-9{fill:#223666;}.cls-10{fill:#3e84c2;}.cls-11{fill:#506ca6;}.cls-12{fill:#fcf4e3;}.cls-13{fill:#ed864e;}.cls-14{fill:#10192e;}.cls-15{fill:#d34a28;}.cls-16{fill:#fff;}.cls-17{fill:#fbfbfb;stroke:#fbfbfb;stroke-width:0.28px;}.cls-18{stroke-width:0.5px;}.cls-19{fill:#d9e5e1;stroke:#000;}</style></defs><title>illustration page doc1</title><g id="Groupe_63" data-name="Groupe 63"><ellipse id="Ellipse_27" data-name="Ellipse 27" class="cls-1" cx="93.3" cy="708.18" rx="43.14" ry="6.99"/><ellipse id="Ellipse_28" data-name="Ellipse 28" class="cls-1" cx="190.76" cy="708.18" rx="43.14" ry="6.99"/><g id="Groupe_51" data-name="Groupe 51"><g id="Groupe_50" data-name="Groupe 50"><path id="Tracé_376" data-name="Tracé 376" class="cls-2" d="M223.3,684.88,231,727.32h65.15v-5.06l-37-21.48-.7-15.2Z" transform="translate(-36.91 -16.35)"/><path id="Tracé_377" data-name="Tracé 377" class="cls-3" d="M259.11,700.77l-6.64-24.62-34.06,8.91Z" transform="translate(-36.91 -16.35)"/><path id="Tracé_378" data-name="Tracé 378" class="cls-4" d="M265.05,702s-5.59,0-30.22,4.36l-8.73-4v29l81-.35h0a11,11,0,0,0-5.76-10.13Z" transform="translate(-36.91 -16.35)"/></g></g><g id="Groupe_52" data-name="Groupe 52"><path id="Tracé_379" data-name="Tracé 379" class="cls-2" d="M123.57,684.88l-7.68,42.44H50.57v-5.06l37.2-21.48.7-15.2Z" transform="translate(-36.91 -16.35)"/><path id="Tracé_380" data-name="Tracé 380" class="cls-3" d="M87.77,700.77l.7-15.2,33.18-1.4Z" transform="translate(-36.91 -16.35)"/><path id="Tracé_381" data-name="Tracé 381" class="cls-4" d="M81.66,702s5.59,0,30.21,4.36l8.74-4v29l-81-.35h0a11,11,0,0,1,5.77-10.13Z" transform="translate(-36.91 -16.35)"/></g><g id="Groupe_53" data-name="Groupe 53"><path id="Tracé_382" data-name="Tracé 382" class="cls-4" d="M223.83,306.39l36.5,380.06-51.7,1.23L170,446.3c-3.15-9.78-14-9.61-17.47,0L130,686.63l-47-1.23s-9.25-216,18.87-390.88Z" transform="translate(-36.91 -16.35)"/><line id="Ligne_6" data-name="Ligne 6" class="cls-5" x1="82.64" y1="333.71" x2="63.6" y2="664.16"/><line id="Ligne_7" data-name="Ligne 7" class="cls-5" x1="197.57" y1="666.61" x2="158.62" y2="336.68"/><path id="Tracé_383" data-name="Tracé 383" class="cls-6" d="M90.57,391.1,239.2,468.65,232.56,395Z" transform="translate(-36.91 -16.35)"/></g><path id="Tracé_384" data-name="Tracé 384" class="cls-7" d="M137,131.21,115.54,240.55,53.71,213.3C55.81,213,86,156.36,86,156.36S119.56,112.35,137,131.21Z" transform="translate(-36.91 -16.35)"/><g id="Groupe_54" data-name="Groupe 54"><path id="Tracé_385" data-name="Tracé 385" class="cls-7" d="M113.27,133C153.61,111.48,148,116.72,183,116.72c19,0,69.51,21.31,76.15,39.12,6.29,16.77,1.57,45.41,2.27,48.21l-20.09-6.11L238,397,78.86,391.28S98.77,231.82,99.47,205.79C99.47,204.22,110.65,134.36,113.27,133Z" transform="translate(-36.91 -16.35)"/></g><path id="Tracé_386" data-name="Tracé 386" class="cls-8" d="M234.48,170.51l-74.23,223,76.68,2.27Z" transform="translate(-36.91 -16.35)"/><g id="Groupe_57" data-name="Groupe 57"><g id="Groupe_56" data-name="Groupe 56"><g id="Groupe_55" data-name="Groupe 55"><path id="Tracé_387" data-name="Tracé 387" class="cls-2" d="M144,88.6l-1.57,30.74,10.13,30.21,32.48-34.06-5.76-27.42Z" transform="translate(-36.91 -16.35)"/></g></g><path id="Tracé_388" data-name="Tracé 388" class="cls-2" d="M176.85,88.77s-23.58,37.38-33.36,19.56c-2.8-5.06-7.69-22.53-7.69-22.53s41.22,1,41.39,1.22" transform="translate(-36.91 -16.35)"/></g><g id="Groupe_59" data-name="Groupe 59"><g id="Groupe_58" data-name="Groupe 58"><rect id="Rectangle_67" data-name="Rectangle 67" class="cls-9" x="168.09" y="234.42" width="7.16" height="7.16" transform="translate(-93.1 36.72) rotate(-15.13)"/><path id="Tracé_389" data-name="Tracé 389" class="cls-10" d="M136.67,190.77l-25.85,7a2.78,2.78,0,0,1-3.31-1.92l-.7-2.62a2.78,2.78,0,0,1,1.92-3.32l25.85-7a2.78,2.78,0,0,1,3.31,1.92l.7,2.62A2.78,2.78,0,0,1,136.67,190.77Z" transform="translate(-36.91 -16.35)"/><path id="Tracé_390" data-name="Tracé 390" class="cls-11" d="M120.26,181.86l-.7.18a5.47,5.47,0,0,0-3.87,6.71.36.36,0,0,0,0,.1V189l11.36-3.14v-.17a5.78,5.78,0,0,0-6.81-3.85Zm.7,4a1.17,1.17,0,1,1,.87-1.4,1.31,1.31,0,0,1-.88,1.4Z" transform="translate(-36.91 -16.35)"/><path id="Tracé_391" data-name="Tracé 391" class="cls-12" d="M181.74,278.62l-65.67,17.82a3.17,3.17,0,0,1-4-2.08c0-.06,0-.13,0-.19L86.9,201.42a3.17,3.17,0,0,1,2.07-4l.2-.05,65.67-17.82a3.16,3.16,0,0,1,4,2.08l.06.19L184,274.61a3.24,3.24,0,0,1-2.22,4Z" transform="translate(-36.91 -16.35)"/><rect id="Rectangle_68" data-name="Rectangle 68" class="cls-11" x="113.6" y="191.28" width="20.25" height="6.46" transform="translate(-83.41 22.7) rotate(-15.13)"/><path id="Tracé_392" data-name="Tracé 392" class="cls-9" d="M139.29,190.07l-31.09,8.39-1.4-5.24a2.79,2.79,0,0,1,1.93-3.32l25.84-7a2.79,2.79,0,0,1,3.32,1.92Z" transform="translate(-36.91 -16.35)"/></g></g><path id="Tracé_393" data-name="Tracé 393" class="cls-2" d="M59.65,214.52S31.53,252.6,41.31,279.85c9.61,27.24,145-6.82,145-6.82L118,232.33l-21.14-.87L79.56,225Z" transform="translate(-36.91 -16.35)"/><path id="Tracé_394" data-name="Tracé 394" class="cls-13" d="M167.59,277.93l-7.69-2.45-44.36-34.93-20.61-7.34,53.8,47Z" transform="translate(-36.91 -16.35)"/><path id="Tracé_395" data-name="Tracé 395" class="cls-2" d="M131.78,254s101.3,75.45,129.6,49.77c24.63-38.77-3.14-134-3.14-134l-43.67,18s.7,45.76-2.45,44.54c-3.32-1.22-81-2.62-81-2.62s-13.27-15.89-36.15,3.49Z" transform="translate(-36.91 -16.35)"/><path id="Tracé_396" data-name="Tracé 396" class="cls-13" d="M189.77,289.28c20.43,2.62,45.41-2.45,56.24-21.83,6.81-12.23,7-27.77,6.11-41.22-1.05-15.72-4-31.09-5.59-46.81a5,5,0,0,0-.87-2.45l15.2-8.21s25.32,96.24.7,135c-14,12.75-45.94.53-74.58-14.84C187.85,289.1,188.72,289.1,189.77,289.28Z" transform="translate(-36.91 -16.35)"/><path id="Tracé_397" data-name="Tracé 397" class="cls-7" d="M280.24,267.27C272,228.15,269.07,156,243.91,133.13c-11.52-10.48-39.47-10.65-48.73-9.25-5.06.7,4.72,0,5.77,4.89L211.08,232Z" transform="translate(-36.91 -16.35)"/><g id="Groupe_61" data-name="Groupe 61"><path id="Tracé_398" data-name="Tracé 398" class="cls-14" d="M137.2,49.12a10.69,10.69,0,0,0,4.36,4c3.67,1.4,12.23,3.32,16.42.35,4-3,7.69-3,8.91-2.27l9.26,29.17-.7.35.52,1,9.26-4.89-5.59,1.92c6.81-22,11.18-32.83,6.29-39.12,5.41-11.88-12.4-25.15-21.66-18.51-5.59-9.26-13.63-3.15-20.26,1.4-24.45-8.39-20.09,23.58-8.91,28.82C136,53.31,135.63,47.9,137.2,49.12Zm43,29-2.1,1a10.27,10.27,0,0,1,4-2.44Z" transform="translate(-36.91 -16.35)"/><path id="Tracé_399" data-name="Tracé 399" class="cls-2" d="M176.85,77.07a1.15,1.15,0,0,0,1.5.64,1.37,1.37,0,0,0,.42-.29c1.92-1.92,5.94-4.54,7.33,3.14,1.92,10.31-9.08,8.56-9.95,10a37.16,37.16,0,0,1-11.53,12.92c-4,2.8-13.1,5.59-23.23,2.27-7.51-2.44-11.18-28.29-5.76-60.95,0,0,2.62,4.89,6.28,6.11,3.85,1.22,10.48-1,14.68-2.1,3.49-.87,9.95-4,14.32-.87C173.53,49.3,175.1,72.53,176.85,77.07Z" transform="translate(-36.91 -16.35)"/><path id="Tracé_400" data-name="Tracé 400" class="cls-15" d="M184.53,79.86l-5.94,4.37S180.87,73.75,184.53,79.86Z" transform="translate(-36.91 -16.35)"/><g id="Groupe_60" data-name="Groupe 60"><path id="Tracé_401" data-name="Tracé 401" class="cls-14" d="M162.7,67.46c1.92,1.4-1-4.71-3.67-5.41s-5.24.52-5.76,2.8a15.21,15.21,0,0,1,9.43,2.62Z" transform="translate(-36.91 -16.35)"/><path id="Tracé_402" data-name="Tracé 402" class="cls-14" d="M138.25,67.64c-2.45.87-1.4-2.27.7-3.67,2.79-1.22,5.76-.53,6.81,1.92A38.64,38.64,0,0,0,138.25,67.64Z" transform="translate(-36.91 -16.35)"/><path id="Tracé_403" data-name="Tracé 403" class="cls-15" d="M148.9,73.57l-3,8.39c0,.18,0,.35.18.35l3.66.18c.18,0,.18-.18.18-.35l-.53-8.56C149.25,73.4,148.9,73.23,148.9,73.57Z" transform="translate(-36.91 -16.35)"/><ellipse id="Ellipse_29" data-name="Ellipse 29" class="cls-14" cx="118.27" cy="59.32" rx="1.05" ry="2.27"/><path id="Tracé_404" data-name="Tracé 404" class="cls-14" d="M144.36,75.84c0,1.23.52,2.28,1,2.28s1-1.05,1-2.28-.52-2.27-1-2.27S144.36,74.62,144.36,75.84Z" transform="translate(-36.91 -16.35)"/><path id="Tracé_405" data-name="Tracé 405" class="cls-16" d="M142.44,85.45s12.22.35,13.8.18c0,0-4.72,7.16-8.91,6.81C143.31,92.09,142.44,85.45,142.44,85.45Z" transform="translate(-36.91 -16.35)"/></g></g><path id="Tracé_406" data-name="Tracé 406" class="cls-17" d="M133,82s.7,16.77,5.76,21.83,23.4,5.07,31.44-5.41c7.86-10.48,11.35-9.09,11.35-9.09s-9.61,3.5-11.7,3.85c-1.92.35-5.94-7-3.84-9.09s14.67-8.21,14.67-8.21-15.89,6.47-21.48,6.47c-1.75,0-8.21-7.51-16.77-1.75C135.28,85.45,133,82,133,82Z" transform="translate(-36.91 -16.35)"/><g id="Groupe_62" data-name="Groupe 62"><path id="Tracé_407" data-name="Tracé 407" class="cls-18" d="M138.07,119.86c0,1.75,12.22,39.48,12.22,39.48l41.23-41.23" transform="translate(-36.91 -16.35)"/><rect id="Rectangle_69" data-name="Rectangle 69" class="cls-18" x="134.34" y="181.93" width="28.47" height="6.46"/></g></g><polygon class="cls-19" points="9.91 714.99 86.66 714.99 86.66 716.68 0.5 716.68 0.5 707.71 5.88 702.47 29.69 689.28 47.73 681.73 48.5 671.64 43.17 670.86 41.95 627.59 41.95 508.55 44.68 451.83 50.04 374.75 56.03 374.97 51.05 451.45 48.5 507.89 48.5 626.34 49.64 669.39 54.6 670.17 53.89 680.22 37.08 687.73 14.91 700.85 9.91 706.06 9.91 714.99"/><polygon class="cls-19" points="91.79 670.17 96.28 670.17 96.12 671.64 91.52 671.64 91.79 670.17"/><polygon class="cls-19" points="132.55 451.45 138.22 489.39 132.21 451.83 127.97 429.06 123.88 427.01 124.32 426.5 128.6 428.79 132.55 451.45"/><polygon class="cls-19" points="178.44 672.19 178.8 673.74 167.16 674.05 167.16 672.51 178.44 672.19"/><polygon class="cls-19" points="272.37 710.5 272.37 716.68 184.05 716.68 184.05 714.99 263.06 714.99 263.06 708.84 256.98 699.11 241.6 691.68 223.34 683.64 219.79 650.79 216.34 602.65 208.71 518.2 201.56 451.45 197.8 397.08 196.66 380.2 141.63 378.07 201.07 380.22 202.29 397.19 206.33 451.83 214.01 518.92 222.2 603.78 225.91 652.16 229.71 685.18 249.33 693.25 265.85 700.72 272.37 710.5"/><polygon class="cls-19" points="88.44 671.64 91.52 671.64 90.14 679.07 90.14 714.99 86.66 714.99 86.66 680.58 88.44 671.64"/><polygon class="cls-19" points="123.38 426.76 123.88 427.01 120.39 431.09 118.6 445.6 114.31 493.75 107.52 572.46 102.87 630.54 98.94 670.17 96.28 670.17 100.34 631.81 105.33 573.44 112.63 494.34 117.24 445.96 119.16 431.36 123.38 426.76"/><polygon class="cls-19" points="162.17 637.19 167.16 668.06 167.16 672.51 165.09 672.57 165.09 666.61 160.44 635.89 153.29 590.8 145.42 536.55 138.98 494.51 138.22 489.39 139.13 495.11 146.04 537.35 154.49 591.88 162.17 637.19"/><polygon class="cls-19" points="184.05 683.95 184.05 714.99 180.82 714.99 180.82 682.43 178.8 673.74 181.5 673.67 184.05 683.95"/></svg>